<svg width="336" height="336" viewBox="0 0 336 336" fill="none" xmlns="http://www.w3.org/2000/svg">
<g clip-path="url(#clip0_566_4233)">
<path d="M176.101 26.3231L166.886 17.1081L157.671 26.3231C157.451 26.543 157.19 26.7174 156.903 26.8364C156.615 26.9554 156.308 27.0167 155.997 27.0167C155.686 27.0167 155.378 26.9554 155.09 26.8364C154.803 26.7174 154.542 26.543 154.322 26.3231C154.102 26.1032 153.928 25.8422 153.809 25.5549C153.69 25.2676 153.629 24.9597 153.629 24.6487C153.629 24.3378 153.69 24.0299 153.809 23.7426C153.928 23.4553 154.102 23.1942 154.322 22.9744L165.223 12.0731C165.443 11.8529 165.704 11.6783 165.991 11.5591C166.279 11.4399 166.587 11.3786 166.898 11.3786C167.209 11.3786 167.517 11.4399 167.804 11.5591C168.091 11.6783 168.352 11.8529 168.572 12.0731L179.473 22.9744C179.694 23.1941 179.868 23.4551 179.987 23.7424C180.107 24.0297 180.168 24.3377 180.168 24.6487C180.168 24.9598 180.107 25.2678 179.987 25.5551C179.868 25.8424 179.694 26.1034 179.473 26.3231C178.547 27.2256 177.027 27.2494 176.101 26.3231Z" fill="white"/>
<path d="M314.451 182.102L323.666 172.887L314.451 163.672C314.231 163.452 314.057 163.191 313.938 162.904C313.819 162.616 313.758 162.308 313.758 161.997C313.758 161.686 313.819 161.379 313.938 161.091C314.057 160.804 314.231 160.543 314.451 160.323C314.671 160.103 314.932 159.929 315.22 159.81C315.507 159.691 315.815 159.63 316.126 159.63C316.437 159.63 316.745 159.691 317.032 159.81C317.319 159.929 317.58 160.103 317.8 160.323L328.701 171.224C328.922 171.444 329.096 171.705 329.215 171.992C329.335 172.28 329.396 172.588 329.396 172.899C329.396 173.21 329.335 173.518 329.215 173.805C329.096 174.092 328.922 174.353 328.701 174.573L317.8 185.474C317.58 185.695 317.319 185.869 317.032 185.988C316.745 186.108 316.437 186.169 316.126 186.169C315.815 186.169 315.507 186.108 315.219 185.988C314.932 185.869 314.671 185.695 314.451 185.474C313.549 184.548 313.525 183.028 314.451 182.102Z" fill="white"/>
<path d="M20.3221 163.672L11.1071 172.887L20.3221 182.102C20.542 182.322 20.7164 182.583 20.8354 182.87C20.9544 183.157 21.0156 183.465 21.0156 183.776C21.0156 184.087 20.9544 184.395 20.8354 184.682C20.7164 184.97 20.542 185.231 20.3221 185.451C20.1022 185.67 19.8412 185.845 19.5539 185.964C19.2666 186.083 18.9587 186.144 18.6477 186.144C18.3367 186.144 18.0288 186.083 17.7415 185.964C17.4542 185.845 17.1932 185.67 16.9733 185.451L6.07208 174.549C5.8519 174.33 5.67723 174.069 5.55805 173.781C5.43887 173.494 5.37752 173.186 5.37752 172.875C5.37752 172.564 5.43887 172.256 5.55805 171.969C5.67723 171.681 5.8519 171.42 6.07208 171.201L16.9733 160.299C17.193 160.079 17.454 159.905 17.7413 159.785C18.0287 159.666 18.3367 159.605 18.6477 159.605C18.9588 159.605 19.2667 159.666 19.5541 159.785C19.8414 159.905 20.1024 160.079 20.3221 160.299C21.2246 161.226 21.2483 162.746 20.3221 163.672Z" fill="white"/>
<path d="M157.673 320.451L166.888 329.666L176.103 320.451C176.322 320.231 176.583 320.056 176.871 319.937C177.158 319.818 177.466 319.757 177.777 319.757C178.088 319.757 178.396 319.818 178.683 319.937C178.97 320.056 179.231 320.231 179.451 320.451C179.671 320.67 179.846 320.932 179.965 321.219C180.084 321.506 180.145 321.814 180.145 322.125C180.145 322.436 180.084 322.744 179.965 323.031C179.846 323.318 179.671 323.579 179.451 323.799L168.55 334.701C168.33 334.921 168.069 335.095 167.782 335.215C167.495 335.334 167.187 335.395 166.876 335.395C166.565 335.395 166.257 335.334 165.969 335.215C165.682 335.095 165.421 334.921 165.201 334.701L154.3 323.799C154.08 323.58 153.905 323.319 153.786 323.031C153.667 322.744 153.605 322.436 153.605 322.125C153.605 321.814 153.667 321.506 153.786 321.219C153.905 320.931 154.08 320.67 154.3 320.451C155.226 319.548 156.746 319.524 157.673 320.451Z" fill="white"/>
<path d="M69.5595 63.2347L56.5275 63.2347L56.5275 76.2666C56.5275 76.5776 56.4663 76.8855 56.3473 77.1728C56.2283 77.4601 56.0539 77.7211 55.834 77.941C55.6141 78.1609 55.3531 78.3353 55.0658 78.4543C54.7785 78.5733 54.4706 78.6346 54.1596 78.6346C53.8487 78.6346 53.5408 78.5733 53.2535 78.4543C52.9662 78.3353 52.7051 78.1609 52.4853 77.941C52.2654 77.7211 52.0909 77.4601 51.9719 77.1728C51.853 76.8855 51.7917 76.5776 51.7917 76.2667L51.7917 60.85C51.7914 60.5389 51.8524 60.2308 51.9713 59.9434C52.0902 59.656 52.2646 59.3948 52.4845 59.1749C52.7045 58.9549 52.9656 58.7805 53.2531 58.6616C53.5405 58.5427 53.8486 58.4817 54.1596 58.482L69.5763 58.482C69.8874 58.4817 70.1954 58.5427 70.4829 58.6616C70.7703 58.7805 71.0315 58.9549 71.2514 59.1749C71.4714 59.3948 71.6458 59.656 71.7646 59.9434C71.8835 60.2308 71.9446 60.5389 71.9442 60.85C71.9275 62.1431 70.8694 63.2347 69.5595 63.2347Z" fill="white"/>
<path d="M277.538 75.5595L277.538 62.5275L264.506 62.5275C264.195 62.5275 263.888 62.4663 263.6 62.3473C263.313 62.2283 263.052 62.0539 262.832 61.834C262.612 61.6141 262.438 61.3531 262.319 61.0658C262.2 60.7785 262.138 60.4706 262.138 60.1596C262.138 59.8487 262.2 59.5408 262.319 59.2535C262.438 58.9662 262.612 58.7051 262.832 58.4853C263.052 58.2654 263.313 58.0909 263.6 57.9719C263.888 57.853 264.195 57.7917 264.506 57.7917L279.923 57.7917C280.234 57.7914 280.542 57.8524 280.83 57.9713C281.117 58.0902 281.378 58.2646 281.598 58.4845C281.818 58.7045 281.993 58.9656 282.111 59.2531C282.23 59.5405 282.291 59.8486 282.291 60.1596L282.291 75.5763C282.291 75.8874 282.23 76.1954 282.111 76.4829C281.993 76.7703 281.818 77.0315 281.598 77.2514C281.378 77.4714 281.117 77.6458 280.83 77.7646C280.542 77.8835 280.234 77.9446 279.923 77.9442C278.63 77.9275 277.538 76.8694 277.538 75.5595Z" fill="white"/>
<path d="M56.528 270.507L56.528 283.539L69.56 283.539C69.8709 283.539 70.1789 283.6 70.4661 283.719C70.7534 283.838 71.0145 284.013 71.2344 284.233C71.4542 284.452 71.6287 284.714 71.7477 285.001C71.8667 285.288 71.9279 285.596 71.9279 285.907C71.9279 286.218 71.8667 286.526 71.7477 286.813C71.6287 287.1 71.4542 287.361 71.2344 287.581C71.0145 287.801 70.7534 287.976 70.4661 288.095C70.1789 288.214 69.8709 288.275 69.56 288.275L54.1433 288.275C53.8322 288.275 53.5242 288.214 53.2367 288.095C52.9493 287.976 52.6881 287.802 52.4682 287.582C52.2483 287.362 52.0738 287.101 51.955 286.814C51.8361 286.526 51.775 286.218 51.7754 285.907L51.7754 270.49C51.775 270.179 51.8361 269.871 51.955 269.584C52.0738 269.296 52.2483 269.035 52.4682 268.815C52.6881 268.595 52.9493 268.421 53.2367 268.302C53.5242 268.183 53.8322 268.122 54.1433 268.122C55.4364 268.139 56.528 269.197 56.528 270.507Z" fill="white"/>
<path d="M264.507 284.246L277.539 284.246L277.539 271.214C277.539 270.903 277.6 270.595 277.719 270.308C277.838 270.021 278.013 269.76 278.232 269.54C278.452 269.32 278.713 269.146 279.001 269.027C279.288 268.908 279.596 268.846 279.907 268.846C280.218 268.846 280.526 268.908 280.813 269.027C281.1 269.146 281.361 269.32 281.581 269.54C281.801 269.76 281.975 270.021 282.094 270.308C282.213 270.595 282.275 270.903 282.275 271.214L282.275 286.631C282.275 286.942 282.214 287.25 282.095 287.537C281.976 287.825 281.802 288.086 281.582 288.306C281.362 288.526 281.101 288.7 280.813 288.819C280.526 288.938 280.218 288.999 279.907 288.999L264.49 288.999C264.179 288.999 263.871 288.938 263.584 288.819C263.296 288.7 263.035 288.526 262.815 288.306C262.595 288.086 262.421 287.825 262.302 287.537C262.183 287.25 262.122 286.942 262.122 286.631C262.139 285.338 263.197 284.246 264.507 284.246Z" fill="white"/>
<circle cx="166.387" cy="174.387" r="90" fill="#FD841F"/>
<g filter="url(#filter0_i_566_4233)">
<path d="M292.387 173.387C292.387 242.422 236.422 298.387 167.387 298.387C98.3511 298.387 42.3867 242.422 42.3867 173.387C42.3867 104.351 98.3511 48.3868 167.387 48.3868C236.422 48.3868 292.387 104.351 292.387 173.387ZM61.0491 173.387C61.0491 232.115 108.658 279.724 167.387 279.724C226.115 279.724 273.724 232.115 273.724 173.387C273.724 114.658 226.115 67.0492 167.387 67.0492C108.658 67.0492 61.0491 114.658 61.0491 173.387Z" fill="#231F20"/>
</g>
<path d="M292.387 173.387C292.387 242.422 236.422 298.387 167.387 298.387C98.3511 298.387 42.3867 242.422 42.3867 173.387C42.3867 104.351 98.3511 48.3868 167.387 48.3868C236.422 48.3868 292.387 104.351 292.387 173.387ZM61.0491 173.387C61.0491 232.115 108.658 279.724 167.387 279.724C226.115 279.724 273.724 232.115 273.724 173.387C273.724 114.658 226.115 67.0492 167.387 67.0492C108.658 67.0492 61.0491 114.658 61.0491 173.387Z" fill="#231F20"/>
</g>
<defs>
<filter id="filter0_i_566_4233" x="42.3867" y="48.3868" width="270.301" height="259.039" filterUnits="userSpaceOnUse" color-interpolation-filters="sRGB">
<feFlood flood-opacity="0" result="BackgroundImageFix"/>
<feBlend mode="normal" in="SourceGraphic" in2="BackgroundImageFix" result="shape"/>
<feColorMatrix in="SourceAlpha" type="matrix" values="0 0 0 0 0 0 0 0 0 0 0 0 0 0 0 0 0 0 127 0" result="hardAlpha"/>
<feOffset dx="20.301" dy="9.03859"/>
<feGaussianBlur stdDeviation="11.1111"/>
<feComposite in2="hardAlpha" operator="arithmetic" k2="-1" k3="1"/>
<feColorMatrix type="matrix" values="0 0 0 0 0.106373 0 0 0 0 0.0942157 0 0 0 0 0.0972549 0 0 0 1 0"/>
<feBlend mode="normal" in2="shape" result="effect1_innerShadow_566_4233"/>
</filter>
<clipPath id="clip0_566_4233">
<rect width="336" height="336" fill="white"/>
</clipPath>
</defs>
</svg>
