<svg width="94" height="94" viewBox="0 0 94 94" fill="none" xmlns="http://www.w3.org/2000/svg">
<path d="M36.8594 1.375C34.1055 1.375 33.1875 1.99555 33.1875 5.04688V7.80078H24.9258C19.5011 7.80078 18.5 8.80192 18.5 14.2266V83.0742C18.5 88.4989 19.5011 89.5 24.9258 89.5H68.9883C74.4129 89.5 75.4141 88.4989 75.4141 83.0742V14.2266C75.4141 8.80192 74.4129 7.80078 68.9883 7.80078H60.7266V5.04688C60.7266 1.99555 59.8086 1.375 57.0547 1.375H36.8594ZM26 10.375C26.8567 10.375 29.5371 10.375 30.9141 10.375H62.125C73.9141 10.375 72.9141 9.375 72.9141 20.8789V76.875C72.9141 87.375 72.4141 87.375 62.4141 87.375H31.2031C20.4141 87.375 21.104 88.375 21.104 76.875V20.8789C21.104 9.875 20.5 10.375 26 10.375ZM25.9399 36.5039C24.9228 36.5039 24.104 37.3227 24.104 38.3398V48.4375C24.104 49.4546 24.9228 50.2734 25.9399 50.2734H67.604C68.6211 50.2734 69.4399 49.4546 69.4399 48.4375V38.3398C69.4399 37.3227 68.6211 36.5039 67.604 36.5039H25.9399ZM25.9399 53.0273C24.9228 53.0273 24.104 53.8462 24.104 54.8633V64.9609C24.104 65.9781 24.9228 66.7969 25.9399 66.7969H67.604C68.6211 66.7969 69.4399 65.9781 69.4399 64.9609V54.8633C69.4399 53.8462 68.6211 53.0273 67.604 53.0273H25.9399ZM25.9399 69.5508C24.9228 69.5508 24.104 67.3696 24.104 68.3867V76V81.4844C24.104 82.5015 24.9228 83.3203 25.9399 83.3203H67.604C68.6211 83.3203 69.4399 82.5015 69.4399 81.4844V71.3867C69.4399 70.3696 68.6211 69.5508 67.604 69.5508H25.9399Z" fill="black"/>
</svg>
