<svg width="42" height="43" viewBox="0 0 42 43" fill="none" xmlns="http://www.w3.org/2000/svg">
<g clip-path="url(#clip0_195_7358)">
<path d="M28.1523 9.92162V14.5301H18.9354V9.92162H28.1523Z" fill="white"/>
<path d="M28.1523 19.1386V23.7471H18.9354V19.1386H28.1523Z" fill="white"/>
<path d="M28.1523 28.3555V32.964H18.9354V28.3555H28.1523Z" fill="white"/>
<path d="M10.8705 17.9865L10.8705 5.31314L22.3917 5.31314V3.0089L10.8705 3.0089C10.2594 3.0089 9.6733 3.25166 9.24117 3.68379C8.80904 4.11592 8.56627 4.70201 8.56627 5.31314L8.56627 19.8414H12.5411V22.4452H14.3269V17.9865H10.8705Z" fill="white"/>
<path d="M33.913 37.5725V5.31314C33.913 4.70201 33.6702 4.11592 33.2381 3.68379C32.8059 3.25166 32.2198 3.0089 31.6087 3.0089L27.0002 3.0089V5.31314H31.6087L31.6087 37.5725H27.0002L27.0002 39.8768H31.6087C32.2198 39.8768 32.8059 39.634 33.2381 39.2019C33.6702 38.7697 33.913 38.1836 33.913 37.5725Z" fill="white"/>
<path d="M10.8705 37.5725L10.8705 22.5949H8.56627L8.56627 37.5725C8.56627 38.1836 8.80904 38.7697 9.24117 39.2019C9.6733 39.634 10.2594 39.8768 10.8705 39.8768H22.3917V37.5725H10.8705Z" fill="white"/>
</g>
<defs>
<clipPath id="clip0_195_7358">
<rect width="41.4763" height="41.4763" fill="white" transform="translate(41.9778 0.704651) rotate(90)"/>
</clipPath>
</defs>
</svg>
