<svg width="37" height="38" viewBox="0 0 37 38" fill="none" xmlns="http://www.w3.org/2000/svg">
<g clip-path="url(#clip0_195_7342)">
<path d="M12.0128 0.31311C12.3114 0.31311 12.5978 0.434494 12.8089 0.650559C13.0201 0.866623 13.1387 1.15967 13.1387 1.46523V4.92159H15.3906V1.46523C15.3906 1.15967 15.5092 0.866623 15.7204 0.650559C15.9315 0.434494 16.2179 0.31311 16.5165 0.31311C16.8151 0.31311 17.1015 0.434494 17.3127 0.650559C17.5238 0.866623 17.6425 1.15967 17.6425 1.46523V4.92159H19.8943V1.46523C19.8943 1.15967 20.013 0.866623 20.2241 0.650559C20.4353 0.434494 20.7217 0.31311 21.0203 0.31311C21.3189 0.31311 21.6053 0.434494 21.8164 0.650559C22.0276 0.866623 22.1462 1.15967 22.1462 1.46523V4.92159H24.3981V1.46523C24.3981 1.15967 24.5167 0.866623 24.7279 0.650559C24.939 0.434494 25.2254 0.31311 25.524 0.31311C25.8226 0.31311 26.109 0.434494 26.3202 0.650559C26.5313 0.866623 26.65 1.15967 26.65 1.46523V4.92159C28.143 4.92159 29.575 5.52851 30.6307 6.60883C31.6865 7.68916 32.2796 9.15439 32.2796 10.6822H35.6574C35.9561 10.6822 36.2424 10.8036 36.4536 11.0196C36.6648 11.2357 36.7834 11.5288 36.7834 11.8343C36.7834 12.1399 36.6648 12.4329 36.4536 12.649C36.2424 12.8651 35.9561 12.9864 35.6574 12.9864H32.2796V15.2907H35.6574C35.9561 15.2907 36.2424 15.4121 36.4536 15.6281C36.6648 15.8442 36.7834 16.1372 36.7834 16.4428C36.7834 16.7484 36.6648 17.0414 36.4536 17.2575C36.2424 17.4735 35.9561 17.5949 35.6574 17.5949H32.2796V19.8992H35.6574C35.9561 19.8992 36.2424 20.0205 36.4536 20.2366C36.6648 20.4527 36.7834 20.7457 36.7834 21.0513C36.7834 21.3568 36.6648 21.6499 36.4536 21.866C36.2424 22.082 35.9561 22.2034 35.6574 22.2034H32.2796V24.5076H35.6574C35.9561 24.5076 36.2424 24.629 36.4536 24.8451C36.6648 25.0612 36.7834 25.3542 36.7834 25.6598C36.7834 25.9653 36.6648 26.2584 36.4536 26.4744C36.2424 26.6905 35.9561 26.8119 35.6574 26.8119H32.2796C32.2796 28.3397 31.6865 29.8049 30.6307 30.8852C29.575 31.9656 28.143 32.5725 26.65 32.5725V36.0289C26.65 36.3344 26.5313 36.6275 26.3202 36.8435C26.109 37.0596 25.8226 37.181 25.524 37.181C25.2254 37.181 24.939 37.0596 24.7279 36.8435C24.5167 36.6275 24.3981 36.3344 24.3981 36.0289V32.5725H22.1462V36.0289C22.1462 36.3344 22.0276 36.6275 21.8164 36.8435C21.6053 37.0596 21.3189 37.181 21.0203 37.181C20.7217 37.181 20.4353 37.0596 20.2241 36.8435C20.013 36.6275 19.8943 36.3344 19.8943 36.0289V32.5725H17.6425V36.0289C17.6425 36.3344 17.5238 36.6275 17.3127 36.8435C17.1015 37.0596 16.8151 37.181 16.5165 37.181C16.2179 37.181 15.9315 37.0596 15.7204 36.8435C15.5092 36.6275 15.3906 36.3344 15.3906 36.0289V32.5725H13.1387V36.0289C13.1387 36.3344 13.0201 36.6275 12.8089 36.8435C12.5978 37.0596 12.3114 37.181 12.0128 37.181C11.7142 37.181 11.4278 37.0596 11.2166 36.8435C11.0055 36.6275 10.8868 36.3344 10.8868 36.0289V32.5725C9.39376 32.5725 7.96183 31.9656 6.90606 30.8852C5.85029 29.8049 5.25716 28.3397 5.25716 26.8119H1.87935C1.58074 26.8119 1.29435 26.6905 1.0832 26.4744C0.872043 26.2584 0.753418 25.9653 0.753418 25.6598C0.753418 25.3542 0.872043 25.0612 1.0832 24.8451C1.29435 24.629 1.58074 24.5076 1.87935 24.5076H5.25716V22.2034H1.87935C1.58074 22.2034 1.29435 22.082 1.0832 21.866C0.872043 21.6499 0.753418 21.3568 0.753418 21.0513C0.753418 20.7457 0.872043 20.4527 1.0832 20.2366C1.29435 20.0205 1.58074 19.8992 1.87935 19.8992H5.25716V17.5949H1.87935C1.58074 17.5949 1.29435 17.4735 1.0832 17.2575C0.872043 17.0414 0.753418 16.7484 0.753418 16.4428C0.753418 16.1372 0.872043 15.8442 1.0832 15.6281C1.29435 15.4121 1.58074 15.2907 1.87935 15.2907H5.25716V12.9864H1.87935C1.58074 12.9864 1.29435 12.8651 1.0832 12.649C0.872043 12.4329 0.753418 12.1399 0.753418 11.8343C0.753418 11.5288 0.872043 11.2357 1.0832 11.0196C1.29435 10.8036 1.58074 10.6822 1.87935 10.6822H5.25716C5.25716 9.15439 5.85029 7.68916 6.90606 6.60883C7.96183 5.52851 9.39376 4.92159 10.8868 4.92159V1.46523C10.8868 1.15967 11.0055 0.866623 11.2166 0.650559C11.4278 0.434494 11.7142 0.31311 12.0128 0.31311V0.31311ZM10.8868 7.22583C9.99099 7.22583 9.13183 7.58999 8.49837 8.23818C7.86491 8.88637 7.50904 9.76551 7.50904 10.6822V26.8119C7.50904 27.7286 7.86491 28.6077 8.49837 29.2559C9.13183 29.9041 9.99099 30.2682 10.8868 30.2682H26.65C27.5458 30.2682 28.405 29.9041 29.0384 29.2559C29.6719 28.6077 30.0278 27.7286 30.0278 26.8119V10.6822C30.0278 9.76551 29.6719 8.88637 29.0384 8.23818C28.405 7.58999 27.5458 7.22583 26.65 7.22583H10.8868ZM12.0128 15.2907C12.0128 14.374 12.3687 13.4949 13.0021 12.8467C13.6356 12.1985 14.4947 11.8343 15.3906 11.8343H22.1462C23.0421 11.8343 23.9012 12.1985 24.5347 12.8467C25.1681 13.4949 25.524 14.374 25.524 15.2907V22.2034C25.524 23.1201 25.1681 23.9992 24.5347 24.6474C23.9012 25.2956 23.0421 25.6598 22.1462 25.6598H15.3906C14.4947 25.6598 13.6356 25.2956 13.0021 24.6474C12.3687 23.9992 12.0128 23.1201 12.0128 22.2034V15.2907ZM15.3906 14.1386C15.092 14.1386 14.8056 14.2599 14.5944 14.476C14.3833 14.6921 14.2647 14.9851 14.2647 15.2907V22.2034C14.2647 22.509 14.3833 22.802 14.5944 23.0181C14.8056 23.2341 15.092 23.3555 15.3906 23.3555H22.1462C22.4448 23.3555 22.7312 23.2341 22.9424 23.0181C23.1535 22.802 23.2721 22.509 23.2721 22.2034V15.2907C23.2721 14.9851 23.1535 14.6921 22.9424 14.476C22.7312 14.2599 22.4448 14.1386 22.1462 14.1386H15.3906Z" fill="white"/>
</g>
<defs>
<clipPath id="clip0_195_7342">
<rect width="36.03" height="36.8679" fill="white" transform="translate(0.753662 0.313133)"/>
</clipPath>
</defs>
</svg>
