<svg width="81" height="82" viewBox="0 0 81 82" fill="none" xmlns="http://www.w3.org/2000/svg">
<path d="M18.5848 44.9756L22.7348 32.37H47.6348L51.7848 44.9756M47.6348 58.9818C46.5341 58.9818 45.4786 58.5391 44.7003 57.7511C43.922 56.9631 43.4848 55.8944 43.4848 54.78C43.4848 53.6656 43.922 52.5968 44.7003 51.8088C45.4786 51.0208 46.5341 50.5781 47.6348 50.5781C48.7354 50.5781 49.791 51.0208 50.5693 51.8088C51.3476 52.5968 51.7848 53.6656 51.7848 54.78C51.7848 55.8944 51.3476 56.9631 50.5693 57.7511C49.791 58.5391 48.7354 58.9818 47.6348 58.9818ZM22.7348 58.9818C21.6341 58.9818 20.5786 58.5391 19.8003 57.7511C19.022 56.9631 18.5848 55.8944 18.5848 54.78C18.5848 53.6656 19.022 52.5968 19.8003 51.8088C20.5786 51.0208 21.6341 50.5781 22.7348 50.5781C23.8354 50.5781 24.891 51.0208 25.6693 51.8088C26.4476 52.5968 26.8848 53.6656 26.8848 54.78C26.8848 55.8944 26.4476 56.9631 25.6693 57.7511C24.891 58.5391 23.8354 58.9818 22.7348 58.9818ZM51.5635 30.9693C50.9825 29.2886 49.4055 28.1681 47.6348 28.1681H22.7348C20.9641 28.1681 19.3871 29.2886 18.8061 30.9693L13.0515 47.7768V70.1868C13.0515 70.9298 13.3429 71.6423 13.8618 72.1676C14.3806 72.693 15.0844 72.9881 15.8181 72.9881H18.5848C19.3186 72.9881 20.0223 72.693 20.5411 72.1676C21.06 71.6423 21.3515 70.9298 21.3515 70.1868V67.3856H49.0181V70.1868C49.0181 70.9298 49.3096 71.6423 49.8285 72.1676C50.3473 72.693 51.051 72.9881 51.7848 72.9881H54.5515C55.2852 72.9881 55.9889 72.693 56.5078 72.1676C57.0266 71.6423 57.3181 70.9298 57.3181 70.1868V47.7768L51.5635 30.9693Z" fill="white"/>
<path d="M64.7139 12.1799L65.9447 10.9083H64.175H51.8318C51.65 10.9083 51.4737 10.8352 51.3422 10.7021C51.2105 10.5687 51.1348 10.3858 51.1348 10.1931C51.1348 10.0005 51.2105 9.81759 51.3422 9.68418C51.4737 9.55108 51.65 9.47803 51.8318 9.47803H67.6044C67.7863 9.47803 67.9626 9.55108 68.094 9.68418C68.2258 9.81759 68.3015 10.0005 68.3015 10.1931V26.1629C68.3015 26.3556 68.2258 26.5385 68.094 26.6719C67.9626 26.805 67.7863 26.878 67.6044 26.878C67.4226 26.878 67.2463 26.805 67.1148 26.6719C66.9831 26.5385 66.9074 26.3556 66.9074 26.1629V13.7973V11.9439L65.6185 13.2758L52.9425 26.3739L52.9423 26.3741C52.8777 26.4409 52.8013 26.4936 52.7176 26.5298C52.634 26.5659 52.5445 26.5849 52.4541 26.5859C52.3638 26.5868 52.2739 26.5698 52.1896 26.5355C52.1052 26.5012 52.0278 26.4501 51.9619 26.3848C51.896 26.3195 51.8429 26.2411 51.8062 26.154C51.7695 26.0668 51.7499 25.9729 51.7489 25.8776C51.7479 25.7823 51.7655 25.6879 51.8004 25.5999C51.8353 25.512 51.8868 25.4324 51.9514 25.3656L64.7139 12.1799Z" fill="white" stroke="white" stroke-width="1.5"/>
</svg>
