<svg width="57" height="52" viewBox="0 0 57 52" fill="none" xmlns="http://www.w3.org/2000/svg">
<path d="M18.8526 24.4614L22.8526 12.4614H46.8526L50.8526 24.4614M46.8526 37.7948C45.7917 37.7948 44.7743 37.3733 44.0242 36.6232C43.274 35.873 42.8526 34.8556 42.8526 33.7948C42.8526 32.7339 43.274 31.7165 44.0242 30.9663C44.7743 30.2162 45.7917 29.7948 46.8526 29.7948C47.9134 29.7948 48.9309 30.2162 49.681 30.9663C50.4311 31.7165 50.8526 32.7339 50.8526 33.7948C50.8526 34.8556 50.4311 35.873 49.681 36.6232C48.9309 37.3733 47.9134 37.7948 46.8526 37.7948ZM22.8526 37.7948C21.7917 37.7948 20.7743 37.3733 20.0242 36.6232C19.274 35.873 18.8526 34.8556 18.8526 33.7948C18.8526 32.7339 19.274 31.7165 20.0242 30.9663C20.7743 30.2162 21.7917 29.7948 22.8526 29.7948C23.9134 29.7948 24.9309 30.2162 25.681 30.9663C26.4312 31.7165 26.8526 32.7339 26.8526 33.7948C26.8526 34.8556 26.4312 35.873 25.681 36.6232C24.9309 37.3733 23.9134 37.7948 22.8526 37.7948ZM50.6392 11.1281C50.0792 9.52809 48.5592 8.46143 46.8526 8.46143H22.8526C21.1459 8.46143 19.6259 9.52809 19.0659 11.1281L13.5192 27.1281V48.4614C13.5192 49.1687 13.8002 49.847 14.3003 50.347C14.8004 50.8471 15.4787 51.1281 16.1859 51.1281H18.8526C19.5598 51.1281 20.2381 50.8471 20.7382 50.347C21.2383 49.847 21.5192 49.1687 21.5192 48.4614V45.7948H48.1859V48.4614C48.1859 49.1687 48.4669 49.847 48.967 50.347C49.4671 50.8471 50.1453 51.1281 50.8526 51.1281H53.5192C54.2265 51.1281 54.9048 50.8471 55.4049 50.347C55.905 49.847 56.1859 49.1687 56.1859 48.4614V27.1281L50.6392 11.1281ZM37.3059 3.12809C36.7459 1.52809 35.2259 0.461426 33.5192 0.461426H9.51925C7.81258 0.461426 6.29258 1.52809 5.73258 3.12809L0.185913 19.1281V40.4614C0.185913 41.1687 0.466865 41.847 0.966962 42.347C1.46706 42.8471 2.14534 43.1281 2.85258 43.1281H5.51925C6.22649 43.1281 6.90477 42.8471 7.40486 42.347C7.90496 41.847 8.18591 41.1687 8.18591 40.4614V29.5548C7.69368 29.3782 7.24108 29.1064 6.854 28.7547C6.46692 28.4031 6.15295 27.9787 5.93005 27.5056C5.70715 27.0326 5.57968 26.5202 5.55495 25.9979C5.53022 25.4755 5.6087 24.9534 5.78591 24.4614C6.37258 22.8614 7.83925 21.7948 9.51925 21.7948H9.70591L11.5726 16.4614H5.51925L9.51925 4.46143H37.7592L37.3059 3.12809Z" fill="white"/>
</svg>
