<svg width="24" height="24" viewBox="0 0 24 24" fill="none" xmlns="http://www.w3.org/2000/svg">
<path d="M2.66667 24C1.93333 24 1.30533 23.7391 0.782667 23.2173C0.260889 22.6947 0 22.0667 0 21.3333V2.66667C0 1.93333 0.260889 1.30533 0.782667 0.782667C1.30533 0.260889 1.93333 0 2.66667 0H21.3333C22.0667 0 22.6947 0.260889 23.2173 0.782667C23.7391 1.30533 24 1.93333 24 2.66667V21.3333C24 22.0667 23.7391 22.6947 23.2173 23.2173C22.6947 23.7391 22.0667 24 21.3333 24H2.66667ZM2.66667 21.3333H21.3333V2.66667H2.66667V21.3333ZM2.66667 21.3333V2.66667V21.3333ZM12 20C12.4667 20 12.8609 19.8387 13.1827 19.516C13.5053 19.1942 13.6667 18.8 13.6667 18.3333C13.6667 17.8667 13.5053 17.4724 13.1827 17.1507C12.8609 16.828 12.4667 16.6667 12 16.6667C11.5333 16.6667 11.1391 16.828 10.8173 17.1507C10.4947 17.4724 10.3333 17.8667 10.3333 18.3333C10.3333 18.8 10.4947 19.1942 10.8173 19.516C11.1391 19.8387 11.5333 20 12 20ZM13.3333 13.7333C13.4 13.3778 13.5169 13.0667 13.684 12.8C13.8502 12.5333 14.1778 12.1556 14.6667 11.6667C15.4889 10.8444 16.0444 10.1778 16.3333 9.66667C16.6222 9.15556 16.7667 8.57778 16.7667 7.93333C16.7667 6.8 16.3502 5.86133 15.5173 5.11733C14.6836 4.37244 13.6333 4 12.3667 4C11.4111 4 10.5613 4.19467 9.81733 4.584C9.07244 4.97245 8.5 5.48889 8.1 6.13333C7.9 6.44444 7.84444 6.772 7.93333 7.116C8.02222 7.46089 8.22222 7.7 8.53333 7.83333C8.84444 7.96667 9.15022 7.972 9.45067 7.84933C9.75022 7.72756 9.98889 7.52222 10.1667 7.23333C10.3889 6.92222 10.6889 6.68311 11.0667 6.516C11.4444 6.34978 11.8333 6.26667 12.2333 6.26667C12.8556 6.26667 13.3556 6.43333 13.7333 6.76667C14.1111 7.1 14.3 7.52222 14.3 8.03333C14.3 8.45555 14.1724 8.87778 13.9173 9.3C13.6613 9.72222 13.2667 10.1667 12.7333 10.6333C12.1556 11.1444 11.7111 11.6667 11.4 12.2C11.0889 12.7333 10.9333 13.2333 10.9333 13.7C10.9333 14.0111 11.0502 14.2778 11.284 14.5C11.5169 14.7222 11.8 14.8333 12.1333 14.8333C12.4444 14.8333 12.7058 14.7276 12.9173 14.516C13.128 14.3053 13.2667 14.0444 13.3333 13.7333Z" fill="white" fill-opacity="0.5"/>
</svg>
