<svg width="25" height="37" viewBox="0 0 25 37" fill="none" xmlns="http://www.w3.org/2000/svg">
<path d="M6.93307 1.9345C7.00149 1.70976 7.1435 1.51247 7.33781 1.37217C7.53212 1.23187 7.76828 1.15611 8.01093 1.15625H16.9931C17.1709 1.15638 17.3462 1.19728 17.5044 1.27558C17.6627 1.35388 17.7994 1.46734 17.9033 1.60662C18.0072 1.7459 18.0754 1.90702 18.1022 2.07672C18.129 2.24641 18.1137 2.41983 18.0575 2.58269L14.0604 14.1633H22.607C22.8173 14.1631 23.0233 14.22 23.2018 14.3274C23.3802 14.4348 23.5238 14.5884 23.6162 14.7707C23.7087 14.953 23.7462 15.1567 23.7246 15.3586C23.703 15.5605 23.6231 15.7525 23.494 15.9127L7.77515 35.4233C7.61412 35.6241 7.38515 35.764 7.12821 35.8185C6.87126 35.873 6.60265 35.8387 6.36925 35.7215C6.13585 35.6043 5.95248 35.4117 5.85114 35.1773C5.74981 34.943 5.73694 34.6817 5.81478 34.4391L9.85902 21.7507H2.39705C2.22249 21.7508 2.05032 21.7116 1.89419 21.6363C1.73807 21.5609 1.6023 21.4514 1.49767 21.3165C1.39304 21.1816 1.32243 21.025 1.29145 20.8592C1.26047 20.6934 1.26996 20.5228 1.31919 20.3611L6.93307 1.9345Z" stroke="white" stroke-width="2.5"/>
</svg>
