<svg width="37" height="37" viewBox="0 0 37 37" fill="none" xmlns="http://www.w3.org/2000/svg">
<path d="M14.5085 0.54126C13.4245 0.54126 13.0632 0.785518 13.0632 1.98657V3.07056H9.81122C7.67599 3.07056 7.28192 3.46462 7.28192 5.59985V32.6995C7.28192 34.8347 7.67599 35.2288 9.81122 35.2288H27.155C29.2902 35.2288 29.6843 34.8347 29.6843 32.6995V5.59985C29.6843 3.46462 29.2902 3.07056 27.155 3.07056H23.903V1.98657C23.903 0.785518 23.5417 0.54126 22.4577 0.54126H14.5085ZM10.234 4.08381C10.5712 4.08381 11.6263 4.08381 12.1683 4.08381H24.4535C29.0938 4.08381 28.7002 3.6902 28.7002 8.21833V30.2593C28.7002 34.3923 28.5034 34.3923 24.5672 34.3923H12.2821C8.03533 34.3923 8.3069 34.7859 8.3069 30.2593V8.21833C8.3069 3.887 8.06916 4.08381 10.234 4.08381ZM10.2104 14.3686C9.81006 14.3686 9.48775 14.6909 9.48775 15.0913V19.0659C9.48775 19.4662 9.81006 19.7885 10.2104 19.7885H26.6101C27.0104 19.7885 27.3328 19.4662 27.3328 19.0659V15.0913C27.3328 14.6909 27.0104 14.3686 26.6101 14.3686H10.2104ZM10.2104 20.8725C9.81006 20.8725 9.48775 21.1948 9.48775 21.5952V25.5698C9.48775 25.9701 9.81006 26.2924 10.2104 26.2924H26.6101C27.0104 26.2924 27.3328 25.9701 27.3328 25.5698V21.5952C27.3328 21.1948 27.0104 20.8725 26.6101 20.8725H10.2104ZM10.2104 27.3764C9.81006 27.3764 9.48775 26.5179 9.48775 26.9182V29.9149V32.0737C9.48775 32.474 9.81006 32.7963 10.2104 32.7963H26.6101C27.0104 32.7963 27.3328 32.474 27.3328 32.0737V28.0991C27.3328 27.6987 27.0104 27.3764 26.6101 27.3764H10.2104Z" fill="white"/>
</svg>
