<svg width="37" height="38" viewBox="0 0 37 38" fill="none" xmlns="http://www.w3.org/2000/svg">
<path d="M30.0625 18.9999C30.0623 17.1396 29.6099 15.3071 28.7444 13.6604L27.0158 15.3901C27.5017 16.5315 27.7514 17.7595 27.75 18.9999H30.0625ZM27.0724 12.0624L25.4375 10.4275L19.9858 15.8781C19.5229 15.6523 19.015 15.5338 18.5 15.5312C17.814 15.5312 17.1433 15.7346 16.5729 16.1158C16.0024 16.4969 15.5578 17.0387 15.2953 17.6725C15.0328 18.3063 14.9641 19.0038 15.0979 19.6767C15.2318 20.3495 15.5621 20.9676 16.0472 21.4527C16.5323 21.9378 17.1504 22.2682 17.8233 22.402C18.4962 22.5359 19.1936 22.4672 19.8274 22.2047C20.4613 21.9421 21.003 21.4975 21.3842 20.9271C21.7653 20.3566 21.9688 19.686 21.9688 18.9999C21.9662 18.4849 21.8476 17.9771 21.6219 17.5142L27.0724 12.0624ZM18.5 20.1562C18.2713 20.1562 18.0478 20.0884 17.8576 19.9613C17.6675 19.8343 17.5193 19.6537 17.4318 19.4424C17.3443 19.2311 17.3214 18.9987 17.366 18.7744C17.4106 18.5501 17.5207 18.3441 17.6824 18.1824C17.8441 18.0206 18.0501 17.9105 18.2744 17.8659C18.4987 17.8213 18.7312 17.8442 18.9425 17.9317C19.1538 18.0192 19.3343 18.1674 19.4614 18.3576C19.5884 18.5477 19.6563 18.7713 19.6563 18.9999C19.656 19.3065 19.534 19.6004 19.3173 19.8172C19.1005 20.034 18.8066 20.1559 18.5 20.1562ZM18.5 9.74994C19.7405 9.74867 20.9684 9.99842 22.1098 10.4842L23.8396 8.75441C22.0785 7.83236 20.1093 7.38058 18.1224 7.44279C16.1356 7.50501 14.1984 8.07912 12.4985 9.10955C10.7986 10.14 9.39357 11.5918 8.41932 13.3245C7.44508 15.0572 6.93467 17.0121 6.93751 18.9999H9.25001C9.25307 16.5476 10.2286 14.1966 11.9627 12.4626C13.6967 10.7285 16.0477 9.753 18.5 9.74994Z" fill="white"/>
<path d="M18.5 35.1875C15.2984 35.1875 12.1687 34.2381 9.50671 32.4594C6.84469 30.6807 4.7699 28.1526 3.54471 25.1947C2.31951 22.2368 1.99895 18.9821 2.62355 15.842C3.24814 12.7019 4.78985 9.81758 7.05372 7.55372C9.31758 5.28985 12.2019 3.74814 15.342 3.12355C18.4821 2.49895 21.7368 2.81951 24.6947 4.04471C27.6526 5.2699 30.1807 7.34469 31.9594 10.0067C33.7381 12.6687 34.6875 15.7984 34.6875 19C34.6826 23.2917 32.9756 27.4062 29.9409 30.4409C26.9062 33.4756 22.7917 35.1826 18.5 35.1875ZM18.5 5.12501C15.7558 5.12501 13.0732 5.93876 10.7915 7.46337C8.50974 8.98797 6.73134 11.155 5.68118 13.6903C4.63101 16.2256 4.35624 19.0154 4.89161 21.7069C5.42698 24.3984 6.74845 26.8707 8.6889 28.8111C10.6294 30.7516 13.1016 32.073 15.7931 32.6084C18.4846 33.1438 21.2744 32.869 23.8097 31.8188C26.3451 30.7687 28.512 28.9903 30.0366 26.7085C31.5613 24.4268 32.375 21.7442 32.375 19C32.3707 15.3214 30.9075 11.7948 28.3064 9.19363C25.7052 6.59249 22.1786 5.12929 18.5 5.12501Z" fill="white"/>
</svg>
