<svg width="32" height="45" viewBox="0 0 32 45" fill="none" xmlns="http://www.w3.org/2000/svg">
<path d="M20.439 0C21.0212 0 21.5795 0.237053 21.9912 0.65901C22.4029 1.08097 22.6341 1.65326 22.6341 2.25V4.5H29.2195C29.8017 4.5 30.36 4.73705 30.7717 5.15901C31.1834 5.58097 31.4146 6.15326 31.4146 6.75V42.75C31.4146 43.3467 31.1834 43.919 30.7717 44.341C30.36 44.7629 29.8017 45 29.2195 45H2.87804C2.29586 45 1.73752 44.7629 1.32586 44.341C0.914194 43.919 0.682922 43.3467 0.682922 42.75V6.75C0.682922 6.15326 0.914194 5.58097 1.32586 5.15901C1.73752 4.73705 2.29586 4.5 2.87804 4.5H9.46341V2.25C9.46341 1.65326 9.69468 1.08097 10.1063 0.65901C10.518 0.237053 11.0763 0 11.6585 0H20.439ZM19.2614 3.40233H12.8366V7.35355H3.84197V41.5975H28.256V7.35355H19.2614V3.40233ZM18.2439 15.75V22.5H24.8293V27H18.2439V33.75H13.8537V27H7.26829V22.5H13.8537V15.75H18.2439Z" fill="white"/>
</svg>
