<svg width="28" height="28" viewBox="0 0 28 28" fill="current" stroke="current" xmlns="http://www.w3.org/2000/svg">
<path d="M28 11V9H24V6C24 5.46957 23.7893 4.96086 23.4142 4.58579C23.0391 4.21071 22.5304 4 22 4H19V0H17V4H11V0H9V4H6C5.46957 4 4.96086 4.21071 4.58579 4.58579C4.21071 4.96086 4 5.46957 4 6V9H0V11H4V17H0V19H4V22C4 22.5304 4.21071 23.0391 4.58579 23.4142C4.96086 23.7893 5.46957 24 6 24H9V28H11V24H17V28H19V24H22C22.5304 24 23.0391 23.7893 23.4142 23.4142C23.7893 23.0391 24 22.5304 24 22V19H28V17H24V11H28ZM22 22H6V6H22V22Z" fill="white" fill-opacity="0.5"/>
</svg>
