<svg width="59" height="60" viewBox="0 0 59 60" fill="none" xmlns="http://www.w3.org/2000/svg">
<path d="M57.3092 34.3685C56.9979 34.6125 56.6147 34.7424 56.2217 34.7372C55.9403 34.7372 55.6628 34.6706 55.4111 34.5426C55.1594 34.4146 54.9405 34.2287 54.7717 33.9997C53.6792 32.506 52.2573 31.294 50.6202 30.4614C48.9832 29.6288 47.1769 29.1988 45.3467 29.206C44.866 29.206 44.405 29.0117 44.0651 28.666C43.7251 28.3202 43.5342 27.8512 43.5342 27.3622C43.5342 26.8732 43.7251 26.4043 44.0651 26.0585C44.405 25.7127 44.866 25.5185 45.3467 25.5185C46.3782 25.5174 47.3882 25.2178 48.2587 24.6547C49.1291 24.0916 49.8242 23.2883 50.2627 22.3385C50.7012 21.3886 50.865 20.3315 50.7351 19.2906C50.6051 18.2496 50.1868 17.2677 49.5289 16.4595C48.871 15.6512 48.0006 15.0501 47.0195 14.7261C46.0383 14.4022 44.9868 14.3689 43.9877 14.63C42.9886 14.8911 42.0831 15.436 41.377 16.2009C40.6709 16.9659 40.1932 17.9194 39.9998 18.9501C39.9646 19.1966 39.8807 19.4333 39.7532 19.6458C39.6256 19.8584 39.4571 20.0425 39.2576 20.187C39.0582 20.3315 38.8321 20.4334 38.5929 20.4865C38.3537 20.5397 38.1064 20.543 37.8659 20.4962C37.6254 20.4495 37.3968 20.3537 37.1937 20.2145C36.9906 20.0754 36.8174 19.8959 36.6844 19.6868C36.5514 19.4777 36.4614 19.2434 36.4199 18.9979C36.3783 18.7525 36.3861 18.501 36.4428 18.2587C36.7117 16.8248 37.3115 15.4763 38.1928 14.3243C39.0742 13.1723 40.2118 12.2496 41.5122 11.6323C42.8126 11.0149 44.2385 10.7206 45.6726 10.7734C47.1067 10.8262 48.508 11.2247 49.7611 11.9361C51.0142 12.6474 52.0833 13.6514 52.8805 14.8652C53.6776 16.079 54.18 17.4681 54.3462 18.918C54.5125 20.368 54.3379 21.8374 53.8368 23.2052C53.3357 24.5731 52.5224 25.8004 51.4639 26.7861C53.9273 27.8726 56.0677 29.5969 57.6717 31.7872C57.8145 31.9809 57.9184 32.2013 57.9775 32.4359C58.0366 32.6704 58.0496 32.9145 58.016 33.1542C57.9823 33.3939 57.9026 33.6245 57.7813 33.8329C57.66 34.0412 57.4996 34.2232 57.3092 34.3685V34.3685ZM44.6217 49.6025C44.8262 50.0434 44.8531 50.5483 44.6964 51.0092C44.5398 51.47 44.2121 51.8502 43.7834 52.0685C43.5334 52.1817 43.264 52.2444 42.9904 52.2529C42.6508 52.2505 42.3185 52.1522 42.0305 51.9691C41.7425 51.786 41.5101 51.5252 41.3592 51.2157C40.314 49.0409 38.6896 47.2082 36.6709 45.9263C34.6522 44.6444 32.3202 43.9648 29.9404 43.9648C27.5607 43.9648 25.2287 44.6444 23.21 45.9263C21.1912 47.2082 19.5668 49.0409 18.5217 51.2157C18.4177 51.4338 18.2724 51.6288 18.0943 51.7897C17.9161 51.9506 17.7085 52.0741 17.4834 52.1533C17.2582 52.2325 17.0199 52.2658 16.7821 52.2513C16.5443 52.2367 16.3117 52.1746 16.0975 52.0685C15.6688 51.8502 15.3411 51.47 15.1845 51.0092C15.0278 50.5483 15.0546 50.0434 15.2592 49.6025C16.9436 46.0742 19.8007 43.2659 23.3248 41.6743C21.521 40.2679 20.1956 38.3219 19.535 36.1098C18.8744 33.8977 18.9117 31.5306 19.6416 29.3411C20.3716 27.1517 21.7576 25.2499 23.6048 23.903C25.452 22.5561 27.6677 21.8317 29.9404 21.8317C32.2132 21.8317 34.4288 22.5561 36.2761 23.903C38.1233 25.2499 39.5093 27.1517 40.2392 29.3411C40.9692 31.5306 41.0065 33.8977 40.3459 36.1098C39.6853 38.3219 38.3599 40.2679 36.5561 41.6743C40.0802 43.2659 42.9372 46.0742 44.6217 49.6025V49.6025ZM29.9404 40.2685C31.3744 40.2685 32.7761 39.8359 33.9683 39.0256C35.1606 38.2152 36.0898 37.0634 36.6386 35.7158C37.1873 34.3682 37.3309 32.8853 37.0511 31.4547C36.7714 30.0241 36.0809 28.71 35.067 27.6786C34.053 26.6472 32.7612 25.9448 31.3548 25.6602C29.9485 25.3756 28.4907 25.5217 27.166 26.0799C25.8412 26.6381 24.7089 27.5833 23.9123 28.7961C23.1156 30.009 22.6904 31.4348 22.6904 32.8935C22.6964 34.8476 23.4622 36.7199 24.8205 38.1017C26.1789 39.4834 28.0195 40.2624 29.9404 40.2685V40.2685ZM16.3467 27.3622C16.3467 26.8732 16.1557 26.4043 15.8158 26.0585C15.4759 25.7127 15.0149 25.5185 14.5342 25.5185C13.5026 25.5174 12.4927 25.2178 11.6222 24.6547C10.7518 24.0916 10.0567 23.2883 9.61822 22.3385C9.17972 21.3886 9.01588 20.3315 9.1458 19.2906C9.27573 18.2496 9.69406 17.2677 10.352 16.4595C11.0099 15.6512 11.8802 15.0501 12.8614 14.7261C13.8426 14.4022 14.8941 14.3689 15.8932 14.63C16.8923 14.8911 17.7977 15.436 18.5039 16.2009C19.21 16.9659 19.6876 17.9194 19.8811 18.9501C19.9162 19.1966 20.0001 19.4333 20.1277 19.6458C20.2552 19.8584 20.4238 20.0425 20.6232 20.187C20.8227 20.3315 21.0488 20.4334 21.288 20.4865C21.5272 20.5397 21.7745 20.543 22.0149 20.4962C22.2554 20.4495 22.4841 20.3537 22.6872 20.2145C22.8903 20.0754 23.0635 19.8959 23.1965 19.6868C23.3295 19.4777 23.4195 19.2434 23.461 18.9979C23.5025 18.7525 23.4947 18.501 23.4381 18.2587C23.1692 16.8248 22.5694 15.4763 21.6881 14.3243C20.8067 13.1723 19.669 12.2496 18.3686 11.6323C17.0683 11.0149 15.6423 10.7206 14.2082 10.7734C12.7741 10.8262 11.3729 11.2247 10.1198 11.9361C8.86667 12.6474 7.79755 13.6514 7.00041 14.8652C6.20326 16.079 5.70089 17.4681 5.53463 18.918C5.36838 20.368 5.54299 21.8374 6.0441 23.2052C6.5452 24.5731 7.35848 25.8004 8.417 26.7861C5.95362 27.8726 3.81322 29.5969 2.20919 31.7872C1.92076 32.1784 1.79692 32.6701 1.8649 33.1542C1.93289 33.6383 2.18712 34.0751 2.57169 34.3685C2.88301 34.6125 3.2662 34.7424 3.65919 34.7372C3.94057 34.7372 4.21809 34.6706 4.46976 34.5426C4.72144 34.4146 4.94036 34.2287 5.10919 33.9997C6.20164 32.506 7.62361 31.294 9.26062 30.4614C10.8976 29.6288 12.704 29.1988 14.5342 29.206C15.0149 29.206 15.4759 29.0117 15.8158 28.666C16.1557 28.3202 16.3467 27.8512 16.3467 27.3622Z" fill="white"/>
</svg>
