<svg width="42" height="43" viewBox="0 0 42 43" fill="none" xmlns="http://www.w3.org/2000/svg">
<path d="M13.2752 9.7776C13.2752 8.05882 13.958 6.41043 15.1733 5.19507C16.3887 3.9797 18.0371 3.29692 19.7559 3.29692C21.4747 3.29692 23.123 3.9797 24.3384 5.19507C25.5538 6.41043 26.2366 8.05882 26.2366 9.7776V23.9055C27.4869 25.1816 28.3327 26.7985 28.6678 28.5533C29.0029 30.3082 28.8125 32.1229 28.1204 33.77C27.4283 35.4171 26.2653 36.8232 24.7773 37.8119C23.2893 38.8007 21.5425 39.3282 19.7559 39.3282C17.9693 39.3282 16.2225 38.8007 14.7345 37.8119C13.2465 36.8232 12.0835 35.4171 11.3914 33.77C10.6993 32.1229 10.5089 30.3082 10.844 28.5533C11.1791 26.7985 12.0249 25.1816 13.2752 23.9055V9.7776ZM19.7559 5.88919C18.7246 5.88919 17.7356 6.29886 17.0064 7.02808C16.2771 7.7573 15.8675 8.74633 15.8675 9.7776V25.0383L15.4372 25.4271C14.4588 26.3021 13.7691 27.4535 13.4594 28.729C13.1498 30.0045 13.2347 31.344 13.703 32.5701C14.1713 33.7963 15.0009 34.8514 16.0819 35.5957C17.163 36.3401 18.4446 36.7386 19.7572 36.7386C21.0697 36.7386 22.3513 36.3401 23.4324 35.5957C24.5135 34.8514 25.3431 33.7963 25.8113 32.5701C26.2796 31.344 26.3646 30.0045 26.0549 28.729C25.7452 27.4535 25.0556 26.3021 24.0772 25.4271L23.6443 25.0357V9.7776C23.6443 8.74633 23.2346 7.7573 22.5054 7.02808C21.7762 6.29886 20.7871 5.88919 19.7559 5.88919ZM21.052 16.2583C21.052 15.9145 20.9155 15.5848 20.6724 15.3418C20.4293 15.0987 20.0996 14.9621 19.7559 14.9621C19.4121 14.9621 19.0824 15.0987 18.8394 15.3418C18.5963 15.5848 18.4597 15.9145 18.4597 16.2583V26.8477C17.5949 27.1535 16.8661 27.7551 16.402 28.5463C15.9378 29.3374 15.7684 30.2672 15.9235 31.1713C16.0786 32.0753 16.5483 32.8954 17.2496 33.4867C17.9509 34.0779 18.8386 34.4021 19.7559 34.4021C20.6731 34.4021 21.5609 34.0779 22.2622 33.4867C22.9635 32.8954 23.4332 32.0753 23.5883 31.1713C23.7434 30.2672 23.5739 29.3374 23.1098 28.5463C22.6457 27.7551 21.9168 27.1535 21.052 26.8477V16.2583Z" fill="white"/>
<path d="M31.2186 16.0279V5.65877H34.6749V16.0279H31.2186ZM31.2186 22.9406V19.4842H34.6749V22.9406H31.2186Z" fill="white"/>
</svg>
