<svg width="42" height="43" viewBox="0 0 42 43" fill="none" xmlns="http://www.w3.org/2000/svg">
<path d="M15.692 36.8032L15.6921 36.8033C16.2356 37.4289 17.0661 37.8029 18.3438 37.8029C21.2962 37.8029 23.3701 37.1123 24.7229 35.8824C26.1424 34.592 26.7785 33.1783 26.7544 31.6101L26.7543 31.603V31.5959C26.7543 31.2126 26.7065 30.8565 26.6147 30.5244L26.6146 30.5238C26.5076 30.1355 26.3725 29.7224 26.2081 29.284L26.2035 29.2716L26.2035 29.2716L24.7778 25.2968L24.6039 24.812L24.9256 24.4098C24.9984 24.3188 25.0647 24.2157 25.1234 24.0982L25.3826 23.5797L25.6975 22.95L26.3878 23.0881C27.2159 23.2537 27.9946 23.5609 28.7197 24.0065M15.692 36.8032L28.2376 24.792M15.692 36.8032C15.0681 36.0851 14.7722 35.2966 14.7722 34.4042C14.7722 33.7965 14.9058 33.2031 15.1822 32.6157L15.183 32.614C15.4364 32.0728 15.8283 31.6173 16.385 31.2444M15.692 36.8032L16.385 31.2444M28.7197 24.0065C28.7199 24.0066 28.72 24.0067 28.7202 24.0068L28.2376 24.792M28.7197 24.0065C28.7195 24.0063 28.7194 24.0062 28.7192 24.0061L28.2376 24.792M28.7197 24.0065C29.471 24.4669 30.0881 25.0747 30.5648 25.8211M28.2376 24.792C28.8713 25.1803 29.3898 25.6913 29.793 26.3249M30.5648 25.8211C30.5632 25.8186 30.5615 25.8161 30.5599 25.8137L29.793 26.3249M30.5648 25.8211C30.9438 26.387 31.3909 26.7792 31.9036 27.0298L31.9041 27.0301C32.4616 27.3031 33.0222 27.4339 33.595 27.4339C34.4888 27.4339 35.3063 27.1366 36.0744 26.5001L36.0749 26.4997C36.7373 25.9515 37.1234 25.1252 37.1234 23.8623C37.1234 21.658 36.5879 19.6768 35.5255 17.8973C34.5473 16.2588 33.1128 15.4518 31.0891 15.4518C30.663 15.4518 30.2636 15.4953 29.8889 15.5795M30.5648 25.8211C30.5668 25.8241 30.5687 25.8271 30.5706 25.8301L29.793 26.3249M29.793 26.3249L29.8889 15.5795M29.8889 15.5795C29.8892 15.5794 29.8895 15.5794 29.8897 15.5793L29.6859 14.6804M29.8889 15.5795L31.4987 27.8578C32.1762 28.1896 32.8749 28.3555 33.595 28.3555C34.7183 28.3555 35.7408 27.9736 36.6625 27.2098C37.5842 26.4471 38.0451 25.3312 38.0451 23.8623C38.0451 21.5004 37.469 19.3546 36.3169 17.4248C35.1648 15.495 33.4222 14.5301 31.0891 14.5301C30.5995 14.5301 30.1317 14.5802 29.6859 14.6804M29.8889 15.5795C29.483 15.6716 29.0515 15.7974 28.5939 15.9587L24.6255 17.4253L24.137 17.6058L23.7302 17.2804C23.6393 17.2077 23.5361 17.1414 23.4186 17.0827L22.9001 16.8234L22.2705 16.5086L22.4085 15.8183C22.5742 14.99 22.8815 14.2111 23.3272 13.4859C23.7876 12.7348 24.3954 12.1179 25.1415 11.6412C25.6941 11.2711 26.0869 10.8114 26.3427 10.2563C26.621 9.64997 26.7543 9.04646 26.7543 8.43826C26.7543 7.58073 26.4632 6.80535 25.8363 6.08257C25.2915 5.45664 24.4601 5.08271 23.1827 5.08271C20.2557 5.08271 18.1908 5.75317 16.8365 6.94675C15.4186 8.19761 14.7722 9.578 14.7722 11.1169C14.7722 11.5001 14.82 11.8859 14.9175 12.2759C15.0249 12.7055 15.1601 13.1522 15.3238 13.6162C15.324 13.617 15.3243 13.6177 15.3245 13.6185L16.7487 17.5889L16.9226 18.0737L16.6009 18.4758C16.5281 18.5668 16.4619 18.67 16.4031 18.7875L16.1439 19.306L15.829 19.9356L15.1387 19.7976C14.3106 19.6319 13.5319 19.3247 12.8068 18.8792C12.0556 18.4188 11.4384 17.8109 10.9617 17.0646C10.5915 16.512 10.1319 16.1192 9.57676 15.8634C8.97044 15.585 8.36691 15.4518 7.75869 15.4518C6.90095 15.4518 6.12615 15.743 5.40453 16.3699C4.7775 16.9148 4.40314 17.7462 4.40314 19.0234C4.40314 21.9503 5.07361 24.0153 6.26718 25.3695C7.52142 26.7913 8.88845 27.4339 10.3942 27.4339C10.8108 27.4339 11.2109 27.3849 11.5964 27.2886C12.026 27.1811 12.4728 27.046 12.9368 26.8823C12.9375 26.882 12.9382 26.8818 12.9389 26.8815L16.9093 25.4574L17.3941 25.2835L17.7963 25.6052C17.8872 25.678 17.9904 25.7442 18.1079 25.803L18.6264 26.0622L19.2561 26.377L19.118 27.0674C18.9524 27.8954 18.6452 28.6742 18.1996 29.3993C17.7392 30.1505 17.1313 30.7676 16.385 31.2444M29.8889 15.5795C29.8886 15.5796 29.8883 15.5796 29.888 15.5797L29.6859 14.6804M29.6859 14.6804C29.2388 14.7818 28.7705 14.9189 28.2808 15.0918L24.306 16.5607C24.162 16.4455 24.0036 16.3447 23.8308 16.2583L23.3123 15.9991C23.4563 15.279 23.7231 14.6021 24.1125 13.9684C24.5007 13.3348 25.0117 12.8163 25.6454 12.4131C26.3366 11.9522 26.8482 11.3618 27.18 10.6417C27.5107 9.92161 27.676 9.18714 27.676 8.43826C27.676 7.34374 27.2946 6.35695 26.5319 5.47788C25.7681 4.59997 24.6517 4.16101 23.1827 4.16101C20.1296 4.16101 17.8109 4.8592 16.2268 6.25557C14.6426 7.65309 13.8505 9.27355 13.8505 11.1169C13.8505 11.5778 13.9081 12.0386 14.0234 12.4995C14.1386 12.9603 14.2826 13.4356 14.4554 13.9252L15.8811 17.9001C15.7659 18.0441 15.6651 18.2025 15.5787 18.3753L15.3195 18.8938C14.5994 18.7497 13.9225 18.483 13.2889 18.0936C12.6552 17.7053 12.1368 17.1944 11.7335 16.5607C11.2727 15.8694 10.6822 15.3579 9.96212 15.0261C9.24205 14.6954 8.50757 14.5301 7.75869 14.5301C6.66418 14.5301 5.67796 14.9114 4.80005 15.6742C3.92098 16.438 3.48145 17.5544 3.48145 19.0234C3.48145 22.0765 4.17963 24.3951 5.576 25.9793C6.97352 27.5635 8.57958 28.3555 10.3942 28.3555C10.8838 28.3555 11.3591 28.2979 11.8199 28.1827C12.2808 28.0675 12.756 27.9235 13.2457 27.7507L17.2205 26.3249M17.2205 26.3249C17.3645 26.4401 17.5229 26.541 17.6957 26.6274L18.2142 26.8866C18.0702 27.6067 17.8035 28.2835 17.414 28.9172C17.0258 29.5509 16.5148 30.0693 15.8811 30.4726M17.2205 26.3249L14.3482 32.2232C14.6789 31.517 15.1899 30.9334 15.8811 30.4726M17.2205 26.3249L16.385 31.2444M15.8811 30.4726L16.376 31.2502C16.379 31.2483 16.382 31.2463 16.385 31.2444M15.8811 30.4726L16.3924 31.2395C16.3899 31.2411 16.3875 31.2428 16.385 31.2444M20.7633 24.9568C21.7246 24.9568 22.5715 24.6096 23.2496 23.9306C23.9295 23.2523 24.2772 22.4049 24.2772 21.4428C24.2772 20.4814 23.93 19.6346 23.2511 18.9565C22.5727 18.2766 21.7253 17.9289 20.7633 17.9289C19.8019 17.9289 18.955 18.2761 18.2769 18.955C17.597 19.6334 17.2493 20.4807 17.2493 21.4428C17.2493 22.4046 17.5968 23.2517 18.2762 23.9299C18.9544 24.6093 19.8015 24.9568 20.7633 24.9568Z" stroke="white" stroke-width="1.84339"/>
</svg>
