<svg xmlns="http://www.w3.org/2000/svg" width="30" height="30" viewBox="0 0 30 30" fill="none">
<path d="M26.25 15V20.625H3.75V5.625H10.3125V3.75H3.75C3.25272 3.75 2.77581 3.94754 2.42417 4.29917C2.07254 4.65081 1.875 5.12772 1.875 5.625V20.625C1.875 21.1223 2.07254 21.5992 2.42417 21.9508C2.77581 22.3025 3.25272 22.5 3.75 22.5H11.25V26.25H7.5V28.125H22.5V26.25H18.75V22.5H26.25C26.7473 22.5 27.2242 22.3025 27.5758 21.9508C27.9275 21.5992 28.125 21.1223 28.125 20.625V15H26.25ZM16.875 26.25H13.125V22.5H16.875V26.25Z" fill="#a8a8a8"/>
<path d="M16.875 16.875H16.8656C16.6636 16.8729 16.4677 16.8056 16.3071 16.6831C16.1464 16.5606 16.0296 16.3895 15.9741 16.1953L14.2931 10.3125H10.3125V8.43748H15C15.2038 8.43737 15.402 8.50365 15.5648 8.62629C15.7275 8.74893 15.8458 8.92126 15.9019 9.11717L16.9087 12.6422L19.7297 3.47342C19.7906 3.28315 19.9098 3.11689 20.0705 2.99825C20.2312 2.87961 20.4252 2.81461 20.625 2.81248C20.8225 2.80951 21.0158 2.87029 21.176 2.9858C21.3363 3.10131 21.455 3.2654 21.5147 3.45373L23.175 8.43748H28.125V10.3125H22.5C22.3032 10.3125 22.1113 10.2506 21.9516 10.1355C21.7919 10.0204 21.6725 9.85799 21.6103 9.67123L20.6606 6.82123L17.7712 16.2131C17.7123 16.4048 17.5934 16.5725 17.4321 16.6916C17.2708 16.8108 17.0755 16.875 16.875 16.875Z" fill="#a8a8a8"/>
</svg>