<svg width="23" height="44" viewBox="0 0 23 44" fill="none" xmlns="http://www.w3.org/2000/svg">
<path d="M3.28572 7.91396C3.28572 5.81505 4.15115 3.8021 5.69163 2.31795C7.2321 0.83379 9.32144 0 11.5 0C13.6786 0 15.7679 0.83379 17.3084 2.31795C18.8489 3.8021 19.7143 5.81505 19.7143 7.91396V25.1664C21.2991 26.7247 22.3711 28.6992 22.7959 30.8422C23.2206 32.9851 22.9793 35.2012 22.102 37.2126C21.2248 39.2239 19.7507 40.941 17.8646 42.1484C15.9786 43.3559 13.7645 44 11.5 44C9.23551 44 7.02142 43.3559 5.13536 42.1484C3.2493 40.941 1.77523 39.2239 0.897983 37.2126C0.0207371 35.2012 -0.220635 32.9851 0.204134 30.8422C0.628903 28.6992 1.70091 26.7247 3.28572 25.1664V7.91396ZM11.5 3.16558C10.1929 3.16558 8.93926 3.66586 8.01497 4.55635C7.09069 5.44684 6.57143 6.65461 6.57143 7.91396V26.5498L6.026 27.0246C4.78588 28.093 3.91174 29.4991 3.51924 31.0567C3.12674 32.6143 3.23439 34.25 3.82796 35.7473C4.42152 37.2447 5.473 38.5331 6.84327 39.4421C8.21353 40.351 9.83798 40.8377 11.5016 40.8377C13.1653 40.8377 14.7898 40.351 16.16 39.4421C17.5303 38.5331 18.5818 37.2447 19.1753 35.7473C19.7689 34.25 19.8765 32.6143 19.484 31.0567C19.0915 29.4991 18.2174 28.093 16.9773 27.0246L16.4286 26.5466V7.91396C16.4286 6.65461 15.9093 5.44684 14.985 4.55635C14.0607 3.66586 12.8071 3.16558 11.5 3.16558ZM13.1429 15.8279C13.1429 15.4081 12.9698 15.0055 12.6617 14.7087C12.3536 14.4119 11.9357 14.2451 11.5 14.2451C11.0643 14.2451 10.6464 14.4119 10.3383 14.7087C10.0302 15.0055 9.85714 15.4081 9.85714 15.8279V28.7593C8.76101 29.1327 7.83716 29.8674 7.24889 30.8335C6.66062 31.7997 6.44581 32.9351 6.64241 34.0391C6.83901 35.1431 7.43438 36.1446 8.32328 36.8666C9.21217 37.5885 10.3374 37.9845 11.5 37.9845C12.6626 37.9845 13.7878 37.5885 14.6767 36.8666C15.5656 36.1446 16.161 35.1431 16.3576 34.0391C16.5542 32.9351 16.3394 31.7997 15.7511 30.8335C15.1628 29.8674 14.239 29.1327 13.1429 28.7593V15.8279Z" fill="white"/>
</svg>
