<svg width="46" height="45" viewBox="0 0 46 45" fill="none" xmlns="http://www.w3.org/2000/svg">
<path d="M25.1638 22.5H31.6551L20.8362 38.25V27H14.345L25.1638 11.25V22.5ZM19.0732 6.75H10.0174V42.75L35.9024 42.8049L35.9826 6.58537H26.9268V2.25H19.0732V6.75ZM16.5087 4.5V2.25C16.5087 1.65326 16.7367 1.08097 17.1425 0.65901C17.5483 0.237053 18.0986 0 18.6725 0H27.3275C27.9014 0 28.4518 0.237053 28.8575 0.65901C29.2633 1.08097 29.4913 1.65326 29.4913 2.25V4.5H35.9826C36.5565 4.5 37.1068 4.73705 37.5126 5.15901C37.9184 5.58097 38.1464 6.15326 38.1464 6.75V42.75C38.1464 43.3467 37.9184 43.919 37.5126 44.341C37.1068 44.763 36.5565 45 35.9826 45H10.0174C9.44357 45 8.8932 44.763 8.48742 44.341C8.08164 43.919 7.85367 43.3467 7.85367 42.75V6.75C7.85367 6.15326 8.08164 5.58097 8.48742 5.15901C8.8932 4.73705 9.44357 4.5 10.0174 4.5H16.5087Z" fill="white"/>
</svg>
