<svg width="45" height="45" viewBox="0 0 45 45" fill="none" xmlns="http://www.w3.org/2000/svg">
<path d="M14.2857 8.91396C14.2857 6.81505 15.1511 4.8021 16.6916 3.31795C18.2321 1.83379 20.3214 1 22.5 1C24.6786 1 26.7679 1.83379 28.3084 3.31795C29.8489 4.8021 30.7143 6.81505 30.7143 8.91396V26.1664C32.2991 27.7247 33.3711 29.6992 33.7959 31.8422C34.2206 33.9851 33.9793 36.2012 33.102 38.2126C32.2248 40.2239 30.7507 41.941 28.8646 43.1484C26.9786 44.3559 24.7645 45 22.5 45C20.2355 45 18.0214 44.3559 16.1354 43.1484C14.2493 41.941 12.7752 40.2239 11.898 38.2126C11.0207 36.2012 10.7794 33.9851 11.2041 31.8422C11.6289 29.6992 12.7009 27.7247 14.2857 26.1664V8.91396ZM22.5 4.16558C21.1929 4.16558 19.9393 4.66586 19.015 5.55635C18.0907 6.44684 17.5714 7.65461 17.5714 8.91396V27.5498L17.026 28.0246C15.7859 29.093 14.9117 30.4991 14.5192 32.0567C14.1267 33.6143 14.2344 35.25 14.828 36.7473C15.4215 38.2447 16.473 39.5331 17.8433 40.4421C19.2135 41.351 20.838 41.8377 22.5016 41.8377C24.1653 41.8377 25.7898 41.351 27.16 40.4421C28.5303 39.5331 29.5818 38.2447 30.1753 36.7473C30.7689 35.25 30.8765 33.6143 30.484 32.0567C30.0915 30.4991 29.2174 29.093 27.9773 28.0246L27.4286 27.5466V8.91396C27.4286 7.65461 26.9093 6.44684 25.985 5.55635C25.0607 4.66586 23.8071 4.16558 22.5 4.16558ZM24.1429 16.8279C24.1429 16.4081 23.9698 16.0055 23.6617 15.7087C23.3536 15.4119 22.9357 15.2451 22.5 15.2451C22.0643 15.2451 21.6464 15.4119 21.3383 15.7087C21.0302 16.0055 20.8571 16.4081 20.8571 16.8279V29.7593C19.761 30.1327 18.8372 30.8674 18.2489 31.8335C17.6606 32.7997 17.4458 33.9351 17.6424 35.0391C17.839 36.1431 18.4344 37.1446 19.3233 37.8666C20.2122 38.5885 21.3374 38.9845 22.5 38.9845C23.6626 38.9845 24.7878 38.5885 25.6767 37.8666C26.5656 37.1446 27.161 36.1431 27.3576 35.0391C27.5542 33.9351 27.3394 32.7997 26.7511 31.8335C26.1628 30.8674 25.239 30.1327 24.1429 29.7593V16.8279Z" fill="white"/>
</svg>
