<svg width="33" height="45" viewBox="0 0 33 45" fill="none" xmlns="http://www.w3.org/2000/svg">
<path fill-rule="evenodd" clip-rule="evenodd" d="M20.091 0.120034C20.3997 0.252486 20.655 0.48473 20.816 0.779554C20.977 1.07438 21.0344 1.41471 20.979 1.74603L18.27 18H31.5C31.7786 18 32.0516 18.0776 32.2886 18.2241C32.5256 18.3705 32.7171 18.5801 32.8416 18.8292C32.9662 19.0784 33.019 19.3573 32.9939 19.6347C32.9689 19.9122 32.8671 20.1772 32.7 20.4L14.7 44.4C14.4983 44.6684 14.2124 44.8614 13.888 44.948C13.5637 45.0347 13.2196 45.01 12.9109 44.878C12.6023 44.7459 12.3468 44.5141 12.1855 44.2197C12.0241 43.9253 11.9662 43.5853 12.021 43.254L14.73 27H1.5C1.22143 27 0.948368 26.9225 0.711404 26.776C0.47444 26.6296 0.282939 26.42 0.15836 26.1709C0.0337804 25.9217 -0.0189552 25.6428 0.00606175 25.3653C0.0310787 25.0879 0.13286 24.8229 0.3 24.6L18.3 0.600034C18.5015 0.330859 18.7877 0.137203 19.1125 0.0501562C19.4372 -0.0368911 19.7819 -0.0122816 20.091 0.120034ZM4.5 24H16.5C16.7177 24.0001 16.9328 24.0476 17.1304 24.1392C17.3279 24.2308 17.5031 24.3644 17.6439 24.5305C17.7846 24.6966 17.8875 24.8914 17.9454 25.1013C18.0032 25.3113 18.0147 25.5312 17.979 25.746L15.99 37.68L28.5 21H16.5C16.2823 20.9999 16.0672 20.9524 15.8696 20.8608C15.6721 20.7692 15.4969 20.6357 15.3561 20.4696C15.2154 20.3034 15.1125 20.1086 15.0546 19.8987C14.9968 19.6888 14.9853 19.4688 15.021 19.254L17.01 7.32003L4.5 24Z" fill="white"/>
</svg>
