<svg width="31" height="45" viewBox="0 0 31 45" fill="none" xmlns="http://www.w3.org/2000/svg">
<path d="M8.94561 2.35278C9.02883 2.07944 9.20154 1.83949 9.43786 1.66885C9.67419 1.49822 9.96141 1.40608 10.2565 1.40625H21.1808C21.3971 1.40641 21.6102 1.45615 21.8027 1.55138C21.9951 1.64661 22.1614 1.7846 22.2878 1.954C22.4142 2.12339 22.4971 2.31935 22.5297 2.52574C22.5623 2.73212 22.5437 2.94303 22.4754 3.14111L17.614 17.2256H28.0085C28.2642 17.2254 28.5149 17.2946 28.7319 17.4252C28.9489 17.5558 29.1235 17.7426 29.236 17.9643C29.3484 18.1861 29.3941 18.4338 29.3678 18.6794C29.3415 18.925 29.2443 19.1585 29.0873 19.3533L9.96976 43.0824C9.77392 43.3266 9.49545 43.4968 9.18294 43.563C8.87044 43.6293 8.54375 43.5876 8.25988 43.445C7.97602 43.3025 7.753 43.0683 7.62975 42.7833C7.50651 42.4982 7.49086 42.1804 7.58553 41.8854L12.5042 26.4536H3.42884C3.21654 26.4537 3.00713 26.406 2.81725 26.3144C2.62737 26.2227 2.46225 26.0895 2.33499 25.9255C2.20774 25.7614 2.12186 25.571 2.08418 25.3693C2.0465 25.1676 2.05805 24.9602 2.11792 24.7636L8.94561 2.35278Z" stroke="white" stroke-width="2.5"/>
</svg>
