<svg width="45" height="45" viewBox="0 0 45 45" fill="none" xmlns="http://www.w3.org/2000/svg">
<path d="M9.54645 15.7917V38.7778C9.54645 39.997 10.0326 41.1663 10.8979 42.0285C11.7633 42.8906 12.937 43.375 14.1607 43.375H34.9251C36.1489 43.375 37.3226 42.8906 38.1879 42.0285C39.0532 41.1663 39.5394 39.997 39.5394 38.7778V27.2847M4.93215 6.59722V2M14.1607 6.59722V2M16.4679 7.97639V11.1944C16.4679 12.4137 15.9818 13.583 15.1164 14.4452C14.2511 15.3073 13.0774 15.7917 11.8536 15.7917H7.2393C6.01551 15.7917 4.84185 15.3073 3.9765 14.4452C3.11115 13.583 2.625 12.4137 2.625 11.1944V7.97639C2.625 7.61061 2.77084 7.25981 3.03045 7.00117C3.29005 6.74253 3.64215 6.59722 4.00929 6.59722H15.0836C15.4507 6.59722 15.8028 6.74253 16.0625 7.00117C16.3221 7.25981 16.4679 7.61061 16.4679 7.97639V7.97639Z" stroke="white" stroke-width="2.5" stroke-linecap="round"/>
<path d="M37.6176 4.29883L33.7715 11.1947H43.0001L39.1541 18.0905" stroke="white" stroke-width="2.5" stroke-linecap="round" stroke-linejoin="round"/>
</svg>
