<svg width="44" height="44" viewBox="0 0 44 44" fill="none" xmlns="http://www.w3.org/2000/svg">
<path d="M5.79608 16.7932L9.79875 4.78514H33.8148L37.8175 16.7932M33.8148 30.1354C32.7532 30.1354 31.7351 29.7137 30.9845 28.963C30.2338 28.2124 29.8121 27.1943 29.8121 26.1327C29.8121 25.0712 30.2338 24.0531 30.9845 23.3024C31.7351 22.5518 32.7532 22.1301 33.8148 22.1301C34.8764 22.1301 35.8944 22.5518 36.6451 23.3024C37.3957 24.0531 37.8175 25.0712 37.8175 26.1327C37.8175 27.1943 37.3957 28.2124 36.6451 28.963C35.8944 29.7137 34.8764 30.1354 33.8148 30.1354ZM9.79875 30.1354C8.73718 30.1354 7.71908 29.7137 6.96843 28.963C6.21779 28.2124 5.79608 27.1943 5.79608 26.1327C5.79608 25.0712 6.21779 24.0531 6.96843 23.3024C7.71908 22.5518 8.73718 22.1301 9.79875 22.1301C10.8603 22.1301 11.8784 22.5518 12.6291 23.3024C13.3797 24.0531 13.8014 25.0712 13.8014 26.1327C13.8014 27.1943 13.3797 28.2124 12.6291 28.963C11.8784 29.7137 10.8603 30.1354 9.79875 30.1354ZM37.604 3.45092C37.0436 1.84985 35.5226 0.782471 33.8148 0.782471H9.79875C8.09094 0.782471 6.56993 1.84985 6.00955 3.45092L0.459183 19.4616V40.8092C0.459183 41.5169 0.740322 42.1956 1.24075 42.6961C1.74118 43.1965 2.41991 43.4776 3.12763 43.4776H5.79608C6.50379 43.4776 7.18252 43.1965 7.68295 42.6961C8.18339 42.1956 8.46453 41.5169 8.46453 40.8092V38.1407H35.149V40.8092C35.149 41.5169 35.4301 42.1956 35.9306 42.6961C36.431 43.1965 37.1097 43.4776 37.8175 43.4776H40.4859C41.1936 43.4776 41.8723 43.1965 42.3728 42.6961C42.8732 42.1956 43.1543 41.5169 43.1543 40.8092V19.4616L37.604 3.45092Z" fill="white"/>
</svg>
